<?xml version="1.0"?>
<svg xmlns="http://www.w3.org/2000/svg" xmlns:xlink="http://www.w3.org/1999/xlink" version="1.1" id="Capa_1" x="0px" y="0px" viewBox="0 0 512 512" style="enable-background:new 0 0 512 512;" xml:space="preserve" width="512px" height="512px"><g><g>
	<g>
		<path d="M205.792,365.792l-35.125,35.125l-35.125-35.125l-15.083,15.083l42.667,42.667c2,2,4.713,3.125,7.541,3.125    c2.829-0.001,5.541-1.125,7.541-3.125l42.667-42.667L205.792,365.792z" data-original="#000000" class="active-path" data-old_color="#fdd415" fill="#fdd415"/>
	</g>
</g><g>
	<g>
		<path d="M181.333,320c-0.295-0.006-0.589-0.006-0.884,0c-11.538,0.244-20.693,9.795-20.449,21.333V416h21.333v-74.667H288V320    H181.333z" data-original="#000000" class="active-path" data-old_color="#fdd415" fill="#fdd415"/>
	</g>
</g><g>
	<g>
		<path d="M348.875,344.459c-4.165-4.164-10.917-4.164-15.083,0l-42.667,42.667l15.083,15.083l35.125-35.125l35.125,35.125    l15.083-15.083L348.875,344.459z" data-original="#000000" class="active-path" data-old_color="#fdd415" fill="#fdd415"/>
	</g>
</g><g>
	<g>
		<path d="M330.667,352v74.667H224V448h106.667c0.295,0.006,0.589,0.006,0.884,0c11.538-0.244,20.693-9.795,20.449-21.333V352    H330.667z" data-original="#000000" class="active-path" data-old_color="#fdd415" fill="#fdd415"/>
	</g>
</g><g>
	<g>
		<rect x="117.333" y="64" width="106.667" height="21.333" data-original="#000000" class="active-path" data-old_color="#fdd415" fill="#fdd415"/>
	</g>
</g><g>
	<g>
		<rect x="117.333" y="106.667" width="21.333" height="21.333" data-original="#000000" class="active-path" data-old_color="#fdd415" fill="#fdd415"/>
	</g>
</g><g>
	<g>
		<rect x="160" y="106.667" width="21.333" height="21.333" data-original="#000000" class="active-path" data-old_color="#fdd415" fill="#fdd415"/>
	</g>
</g><g>
	<g>
		<path d="M455.541,88.459L370.208,3.125c-2-2-4.713-3.125-7.541-3.125H85.333c-17.673,0-32,14.327-32,32v448    c0,17.673,14.327,32,32,32h341.333c17.673,0,32-14.327,32-32V96C458.666,93.171,457.542,90.459,455.541,88.459z M437.333,480    c0,5.891-4.776,10.667-10.667,10.667H85.333c-5.891,0-10.667-4.776-10.667-10.667V32c0-5.891,4.776-10.667,10.667-10.667    l272.917,0l79.083,79.083V480z" data-original="#000000" class="active-path" data-old_color="#fdd415" fill="#fdd415"/>
	</g>
</g><g>
	<g>
		<path d="M384,85.333c-5.891,0-10.667-4.776-10.667-10.667v-64H352v64c0,17.673,14.327,32,32,32h21.333V85.333H384z" data-original="#000000" class="active-path" data-old_color="#fdd415" fill="#fdd415"/>
	</g>
</g><g>
	<g>
		<path d="M352,202.667H234.667V224h128v-10.667C362.667,207.442,357.891,202.667,352,202.667z" data-original="#000000" class="active-path" data-old_color="#fdd415" fill="#fdd415"/>
	</g>
</g><g>
	<g>
		<path d="M373.333,234.667h-128v-32c0-11.782-9.551-21.333-21.333-21.333h-85.333c-11.782,0-21.333,9.551-21.333,21.333v96h21.333    v-96H224v42.667c0,5.891,4.776,10.667,10.667,10.667h138.667v42.667h21.333V256C394.667,244.218,385.115,234.667,373.333,234.667z    " data-original="#000000" class="active-path" data-old_color="#fdd415" fill="#fdd415"/>
	</g>
</g><g>
	<g>
		<rect x="192" y="234.667" width="42.667" height="21.333" data-original="#000000" class="active-path" data-old_color="#fdd415" fill="#fdd415"/>
	</g>
</g></g> </svg>
