<?xml version="1.0"?>
<svg xmlns="http://www.w3.org/2000/svg" xmlns:xlink="http://www.w3.org/1999/xlink" version="1.1" id="Capa_1" x="0px" y="0px" viewBox="0 0 493.787 493.787" style="enable-background:new 0 0 493.787 493.787;" xml:space="preserve" width="512px" height="512px" class=""><g><g>
	<path d="M477.403,57.418h-36.659V31.625c0-8.96-7.29-16.25-16.25-16.25H285.369c-8.96,0-16.25,7.29-16.25,16.25v25.793H16.383   C7.35,57.418,0,64.767,0,73.8v388.229c0,9.034,7.35,16.383,16.383,16.383h461.021c9.034,0,16.384-7.349,16.384-16.383V73.8   C493.787,64.767,486.438,57.418,477.403,57.418z M8.5,396.062h183.061c2.348,0,4.25-1.903,4.25-4.25c0-2.347-1.902-4.25-4.25-4.25   H8.5V204.07h108.064c2.348,0,4.25-1.903,4.25-4.25c0-2.347-1.902-4.25-4.25-4.25H8.5v-70.7h260.619v258.755   c0,2.505,0.366,4.495,1.121,6.082c1.15,2.424,3.298,3.871,5.743,3.87c2.725-0.001,5.367-1.748,7.855-5.194l67.516-93.54   c1.048-1.452,2.318-2.251,3.577-2.251s2.529,0.799,3.577,2.251l67.516,93.54c2.488,3.446,5.132,5.194,7.856,5.194   c1.61,0,6.863-0.718,6.863-9.952V124.87h44.543v312.007H8.5V396.062z M485.287,116.37h-44.543V97.572h44.543V116.37z    M477.403,65.918c4.347,0,7.884,3.536,7.884,7.882v15.272h-44.543V65.918H477.403z M277.619,31.625c0-4.273,3.477-7.75,7.75-7.75   h7.375V169.3c0,2.347,1.902,4.25,4.25,4.25c2.348,0,4.25-1.903,4.25-4.25V23.875h103.331v258.092c0,2.347,1.902,4.25,4.25,4.25   c2.348,0,4.25-1.903,4.25-4.25V23.875h11.419c4.273,0,7.75,3.477,7.75,7.75v350.851l-66.843-92.608   c-2.65-3.67-6.466-5.776-10.47-5.776s-7.819,2.105-10.47,5.776l-66.843,92.608V31.625z M16.383,65.918h252.736v23.154h-97.19   c-2.348,0-4.25,1.903-4.25,4.25s1.902,4.25,4.25,4.25h97.19v18.798H8.5V73.8C8.5,69.454,12.036,65.918,16.383,65.918z    M477.403,469.912H16.383c-4.347,0-7.883-3.536-7.883-7.883v-16.652h476.787v16.652   C485.287,466.376,481.75,469.912,477.403,469.912z" data-original="#000000" class="active-path" data-old_color="#fdd415" fill="#fdd415"/>
	<path d="M38.469,106.671c8.477,0,15.372-6.896,15.372-15.371c0-8.476-6.896-15.371-15.372-15.371S23.097,82.824,23.097,91.3   C23.097,99.775,29.992,106.671,38.469,106.671z M38.469,84.429c3.789,0,6.872,3.083,6.872,6.871c0,3.789-3.083,6.871-6.872,6.871   s-6.872-3.083-6.872-6.871C31.597,87.511,34.68,84.429,38.469,84.429z" data-original="#000000" class="active-path" data-old_color="#fdd415" fill="#fdd415"/>
	<path d="M81.439,106.671c8.477,0,15.372-6.896,15.372-15.371c0-8.476-6.896-15.371-15.372-15.371S66.067,82.824,66.067,91.3   C66.067,99.775,72.963,106.671,81.439,106.671z M81.439,84.429c3.789,0,6.872,3.083,6.872,6.871c0,3.789-3.083,6.871-6.872,6.871   s-6.872-3.083-6.872-6.871C74.567,87.511,77.65,84.429,81.439,84.429z" data-original="#000000" class="active-path" data-old_color="#fdd415" fill="#fdd415"/>
	<path d="M124.41,106.671c8.477,0,15.372-6.896,15.372-15.371c0-8.476-6.896-15.371-15.372-15.371s-15.372,6.896-15.372,15.371   C109.038,99.775,115.934,106.671,124.41,106.671z M124.41,84.429c3.789,0,6.872,3.083,6.872,6.871c0,3.789-3.083,6.871-6.872,6.871   c-3.789,0-6.872-3.083-6.872-6.871C117.538,87.511,120.621,84.429,124.41,84.429z" data-original="#000000" class="active-path" data-old_color="#fdd415" fill="#fdd415"/>
	<path d="M296.994,199.058c-2.348,0-4.25,1.903-4.25,4.25v67c0,2.347,1.902,4.25,4.25,4.25c2.348,0,4.25-1.903,4.25-4.25v-67   C301.244,200.96,299.342,199.058,296.994,199.058z" data-original="#000000" class="active-path" data-old_color="#fdd415" fill="#fdd415"/>
</g></g> </svg>
