<?xml version="1.0"?>
<svg xmlns="http://www.w3.org/2000/svg" xmlns:xlink="http://www.w3.org/1999/xlink" version="1.1" id="Capa_1" x="0px" y="0px" viewBox="0 0 512 512" style="enable-background:new 0 0 512 512;" xml:space="preserve" width="512px" height="512px" class=""><g><g>
	<g>
		<path d="M503.344,313.209H8.656c-4.78,0-8.656,3.876-8.656,8.656v51.338c0,10.029,8.16,18.188,18.189,18.188h475.622    c10.029,0,18.189-8.159,18.189-18.188v-51.338C512,317.085,508.124,313.209,503.344,313.209z M494.688,373.203    c0,0.484-0.394,0.875-0.876,0.875H18.189c-0.484,0-0.876-0.393-0.876-0.875v-42.682h477.375V373.203z" data-original="#000000" class="active-path" data-old_color="#012f5c" fill="#012f5c"/>
	</g>
</g><g>
	<g>
		<path d="M493.811,18.972H18.189C8.16,18.972,0,27.13,0,37.158v284.707c0,4.78,3.876,8.656,8.656,8.656h494.688    c4.78,0,8.656-3.876,8.656-8.656V37.158C512,27.13,503.84,18.972,493.811,18.972z M494.688,313.209H17.312V37.158    c0-0.483,0.394-0.874,0.876-0.874h475.622c0.484,0,0.876,0.392,0.876,0.874V313.209z" data-original="#000000" class="active-path" data-old_color="#012f5c" fill="#012f5c"/>
	</g>
</g><g>
	<g>
		<circle cx="255.997" cy="352.298" r="13.705" data-original="#000000" class="active-path" data-old_color="#012f5c" fill="#012f5c"/>
	</g>
</g><g>
	<g>
		<path d="M352.317,374.077H159.682c-4.78,0-8.656,3.876-8.656,8.656v68.458c0,4.78,3.876,8.656,8.656,8.656h192.636    c4.78,0,8.656-3.876,8.656-8.656v-68.458C360.974,377.953,357.098,374.077,352.317,374.077z M343.661,442.535H168.338V391.39    h175.323V442.535z" data-original="#000000" class="active-path" data-old_color="#012f5c" fill="#012f5c"/>
	</g>
</g><g>
	<g>
		<path d="M373.361,442.535H138.639c-4.78,0-8.656,3.876-8.656,8.656v33.18c0,4.78,3.876,8.656,8.656,8.656h234.721    c4.78,0,8.656-3.876,8.656-8.656v-33.18C382.017,446.411,378.141,442.535,373.361,442.535z M364.704,475.716H147.296v-15.868    h217.409V475.716z" data-original="#000000" class="active-path" data-old_color="#012f5c" fill="#012f5c"/>
	</g>
</g><g>
	<g>
		<path d="M458.968,55.91H53.032c-9.26,0-16.792,7.622-16.792,16.99v248.965c0,4.78,3.876,8.656,8.656,8.656h422.206    c4.78,0,8.656-3.876,8.657-8.656V72.9C475.76,63.532,468.227,55.91,458.968,55.91z M458.446,313.209H53.553V73.223h404.893    V313.209z" data-original="#000000" class="active-path" data-old_color="#012f5c" fill="#012f5c"/>
	</g>
</g><g>
	<g>
		<path d="M201.633,123.174c-38.398,0-69.638,31.24-69.638,69.638c0,38.398,31.239,69.638,69.638,69.638    c38.398,0,69.638-31.24,69.638-69.638C271.271,154.415,240.031,123.174,201.633,123.174z M201.633,245.137    c-28.852,0-52.326-23.474-52.326-52.326c0-28.852,23.472-52.326,52.326-52.326c28.852,0,52.326,23.474,52.326,52.326    C253.959,221.664,230.485,245.137,201.633,245.137z" data-original="#000000" class="active-path" data-old_color="#012f5c" fill="#012f5c"/>
	</g>
</g><g>
	<g>
		<path d="M222.738,193.45c-3.551-3.018-9.104-5.425-16.663-7.199h-0.298v-18.537c5.06,0.722,9.762,2.633,14.099,5.722l6.412-9.077    c-6.443-4.397-13.282-6.869-20.512-7.39v-5.033h-6.313v4.928c-6.375,0.329-11.556,2.304-15.531,5.922    c-3.977,3.612-5.966,8.267-5.966,13.947c0,5.689,1.729,9.984,5.18,12.872c3.451,2.899,8.888,5.225,16.318,6.999v19.131    c-5.849-0.915-11.536-3.781-17.06-8.579l-7.199,8.579c7.167,6.251,15.252,9.83,24.259,10.753v7.199v0.001h6.314v-7.102    c6.705-0.329,12.094-2.304,16.171-5.914c4.076-3.619,6.115-8.298,6.115-14.051C228.063,200.865,226.289,196.475,222.738,193.45z     M199.463,184.478c-3.682-1.179-6.177-2.416-7.494-3.699c-1.316-1.283-1.97-3.017-1.97-5.224c0-2.199,0.839-4.044,2.511-5.522    c1.677-1.477,3.997-2.35,6.953-2.616V184.478z M213.271,213.271c-1.842,1.518-4.342,2.432-7.495,2.761V198.28    c3.945,1.187,6.64,2.456,8.085,3.796c1.445,1.348,2.171,3.178,2.171,5.473C216.031,209.853,215.11,211.762,213.271,213.271z" data-original="#000000" class="active-path" data-old_color="#012f5c" fill="#012f5c"/>
	</g>
</g><g>
	<g>
		<path d="M406.515,265.351l-30.838-30.837l23.21-11.947c2.994-1.541,4.822-4.678,4.688-8.041c-0.134-3.363-2.205-6.344-5.311-7.642    l-120.672-50.45c-3.241-1.356-6.977-0.618-9.46,1.865c-2.482,2.483-3.22,6.221-1.865,9.46l50.451,120.672    c1.298,3.105,4.279,5.176,7.642,5.311c3.373,0.112,6.5-1.697,8.041-4.688l11.947-23.208l30.836,30.838    c1.624,1.623,3.825,2.535,6.121,2.535c2.297,0,4.498-0.912,6.121-2.536l19.09-19.091    C409.895,274.212,409.895,268.731,406.515,265.351z M381.304,278.321L348.2,245.216c-1.635-1.636-3.843-2.535-6.121-2.535    c-0.444,0-0.891,0.035-1.337,0.103c-2.731,0.426-5.094,2.133-6.36,4.591l-8.865,17.223l-35.142-84.054l84.055,35.141    l-17.224,8.865c-2.457,1.266-4.164,3.629-4.591,6.36c-0.427,2.731,0.476,5.502,2.431,7.457l33.106,33.105L381.304,278.321z" data-original="#000000" class="active-path" data-old_color="#012f5c" fill="#012f5c"/>
	</g>
</g><g>
	<g>
		<path d="M291.349,194.377c-4.767-0.544-9.037,2.875-9.577,7.625c-4.625,40.767-39.076,71.509-80.138,71.509    c-44.5,0-80.702-36.203-80.702-80.701c0-44.498,36.203-80.701,80.702-80.701c36.626,0,68.689,24.773,77.974,60.244    c1.211,4.624,5.939,7.393,10.566,6.182c4.626-1.211,7.393-5.941,6.183-10.566c-11.278-43.082-50.229-73.172-94.723-73.172    c-54.045,0-98.015,43.969-98.015,98.013c0,54.044,43.969,98.013,98.015,98.013c49.875,0,91.721-37.346,97.342-86.87    C299.514,199.204,296.101,194.916,291.349,194.377z" data-original="#000000" class="active-path" data-old_color="#012f5c" fill="#012f5c"/>
	</g>
</g></g> </svg>
