<?xml version="1.0"?>
<svg xmlns="http://www.w3.org/2000/svg" xmlns:xlink="http://www.w3.org/1999/xlink" version="1.1" id="Capa_1" x="0px" y="0px" viewBox="0 0 480 480" style="enable-background:new 0 0 480 480;" xml:space="preserve" width="512px" height="512px"><g><g>
	<g>
		<path d="M240,0C107.664,0,0,107.664,0,240s107.664,240,240,240s240-107.664,240-240S372.336,0,240,0z M240,464    C116.488,464,16,363.512,16,240S116.488,16,240,16s224,100.488,224,224S363.512,464,240,464z" data-original="#000000" class="active-path" data-old_color="#012f5c" fill="#012f5c"/>
	</g>
</g><g>
	<g>
		<path d="M376,280h-40h-56.808H200.8H144h-40c-4.424,0-8,3.576-8,8c0,27.16,14.256,52.496,40,71.888V416c0,4.424,3.576,8,8,8h192    c4.424,0,8-3.576,8-8v-56.112c25.744-19.392,40-44.736,40-71.888C384,283.576,380.424,280,376,280z M136,339.152    c-13.328-12.728-21.408-27.544-23.48-43.152H136V339.152z M267.712,296c-5.6,9.656-16.08,16-27.712,16s-22.112-6.344-27.712-16    H267.712z M194.872,296c6.696,18.856,24.664,32,45.128,32s38.44-13.144,45.128-32H296v48.808    c-15.648,3.184-28.008,15.544-31.192,31.192H215.2c-3.184-15.648-15.544-28.008-31.192-31.192V296H194.872z M328,355.992V408H152    v-52.008V296h16v56c0,4.424,3.576,8,8,8c13.232,0,24,10.768,24,24c0,4.424,3.576,8,8,8h64c4.424,0,8-3.576,8-8    c0-13.232,10.768-24,24-24c4.424,0,8-3.576,8-8v-56h16V355.992z M344,339.152V296h23.48    C365.408,311.608,357.328,326.424,344,339.152z" data-original="#000000" class="active-path" data-old_color="#012f5c" fill="#012f5c"/>
	</g>
</g><g>
	<g>
		<path d="M160,152h-16c-8.824,0-16-7.176-16-16c0-8.824,7.176-16,16-16h16c8.824,0,16,7.176,16,16h16c0-17.648-14.352-32-32-32V88    h-16v16c-17.648,0-32,14.352-32,32s14.352,32,32,32h16c8.824,0,16,7.176,16,16c0,8.824-7.176,16-16,16h-16    c-8.824,0-16-7.176-16-16h-16c0,17.648,14.352,32,32,32v16h16v-16c17.648,0,32-14.352,32-32S177.648,152,160,152z" data-original="#000000" class="active-path" data-old_color="#012f5c" fill="#012f5c"/>
	</g>
</g><g>
	<g>
		<path d="M336,152h-16c-8.824,0-16-7.176-16-16c0-8.824,7.176-16,16-16h16c8.824,0,16,7.176,16,16h16c0-17.648-14.352-32-32-32V88    h-16v16c-17.648,0-32,14.352-32,32s14.352,32,32,32h16c8.824,0,16,7.176,16,16c0,8.824-7.176,16-16,16h-16    c-8.824,0-16-7.176-16-16h-16c0,17.648,14.352,32,32,32v16h16v-16c17.648,0,32-14.352,32-32S353.648,152,336,152z" data-original="#000000" class="active-path" data-old_color="#012f5c" fill="#012f5c"/>
	</g>
</g></g> </svg>
