<?xml version="1.0"?>
<svg xmlns="http://www.w3.org/2000/svg" xmlns:xlink="http://www.w3.org/1999/xlink" version="1.1" id="Capa_1" x="0px" y="0px" viewBox="0 0 448 448" style="enable-background:new 0 0 448 448;" xml:space="preserve" width="512px" height="512px" class=""><g><g>
	<g>
		<path d="M273.368,432c3.403,9.582,12.464,15.988,22.632,16h128c10.168-0.012,19.229-6.418,22.632-16H273.368z" data-original="#000000" class="active-path" data-old_color="#fdd415" fill="#fdd415"/>
	</g>
</g><g>
	<g>
		<path d="M296,336v80h8v-64c0-4.418,3.582-8,8-8h96c4.418,0,8,3.582,8,8v64h8v-80H296z" data-original="#000000" class="active-path" data-old_color="#fdd415" fill="#fdd415"/>
	</g>
</g><g>
	<g>
		<rect x="232" y="256" width="64" height="16" data-original="#000000" class="active-path" data-old_color="#fdd415" fill="#fdd415"/>
	</g>
</g><g>
	<g>
		<path d="M1.368,432c3.403,9.582,12.464,15.988,22.632,16h128c10.168-0.012,19.229-6.418,22.632-16H1.368z" data-original="#000000" class="active-path" data-old_color="#fdd415" fill="#fdd415"/>
	</g>
</g><g>
	<g>
		<circle cx="248" cy="208" r="32" data-original="#000000" class="active-path" data-old_color="#fdd415" fill="#fdd415"/>
	</g>
</g><g>
	<g>
		<path d="M202.8,224H152v16h60.32C208.134,235.338,204.9,229.903,202.8,224z" data-original="#000000" class="active-path" data-old_color="#fdd415" fill="#fdd415"/>
	</g>
</g><g>
	<g>
		<rect x="48" y="360" width="80" height="56" data-original="#000000" class="active-path" data-old_color="#fdd415" fill="#fdd415"/>
	</g>
</g><g>
	<g>
		<path d="M24,336v80h8v-64c0-4.418,3.582-8,8-8h96c4.418,0,8,3.582,8,8v64h8v-80H24z" data-original="#000000" class="active-path" data-old_color="#fdd415" fill="#fdd415"/>
	</g>
</g><g>
	<g>
		<rect x="152" y="256" width="64" height="16" data-original="#000000" class="active-path" data-old_color="#fdd415" fill="#fdd415"/>
	</g>
</g><g>
	<g>
		<path d="M296,0v80h8V16c0-4.418,3.582-8,8-8h96c4.418,0,8,3.582,8,8v64h8V0H296z" data-original="#000000" class="active-path" data-old_color="#fdd415" fill="#fdd415"/>
	</g>
</g><g>
	<g>
		<path d="M273.368,96c3.403,9.582,12.464,15.988,22.632,16h128c10.168-0.012,19.229-6.418,22.632-16H273.368z" data-original="#000000" class="active-path" data-old_color="#fdd415" fill="#fdd415"/>
	</g>
</g><g>
	<g>
		<rect x="320" y="24" width="80" height="56" data-original="#000000" class="active-path" data-old_color="#fdd415" fill="#fdd415"/>
	</g>
</g><g>
	<g>
		<path d="M152,192v16h48c0.014-5.454,0.961-10.865,2.8-16H152z" data-original="#000000" class="active-path" data-old_color="#fdd415" fill="#fdd415"/>
	</g>
</g><g>
	<g>
		<rect x="320" y="360" width="80" height="56" data-original="#000000" class="active-path" data-old_color="#fdd415" fill="#fdd415"/>
	</g>
</g><g>
	<g>
		<path d="M1.368,96c3.403,9.582,12.464,15.988,22.632,16h128c10.168-0.012,19.229-6.418,22.632-16H1.368z" data-original="#000000" class="active-path" data-old_color="#fdd415" fill="#fdd415"/>
	</g>
</g><g>
	<g>
		<rect x="48" y="24" width="80" height="56" data-original="#000000" class="active-path" data-old_color="#fdd415" fill="#fdd415"/>
	</g>
</g><g>
	<g>
		<path d="M24,0v80h8V16c0-4.418,3.582-8,8-8h96c4.418,0,8,3.582,8,8v64h8V0H24z" data-original="#000000" class="active-path" data-old_color="#fdd415" fill="#fdd415"/>
	</g>
</g><g>
	<g>
		<rect x="184" y="24" width="16" height="16" data-original="#000000" class="active-path" data-old_color="#fdd415" fill="#fdd415"/>
	</g>
</g><g>
	<g>
		<rect x="216" y="24" width="16" height="16" data-original="#000000" class="active-path" data-old_color="#fdd415" fill="#fdd415"/>
	</g>
</g><g>
	<g>
		<rect x="248" y="24" width="16" height="16" data-original="#000000" class="active-path" data-old_color="#fdd415" fill="#fdd415"/>
	</g>
</g><g>
	<g>
		<rect x="72" y="216" width="16" height="16" data-original="#000000" class="active-path" data-old_color="#fdd415" fill="#fdd415"/>
	</g>
</g><g>
	<g>
		<rect x="72" y="248" width="16" height="16" data-original="#000000" class="active-path" data-old_color="#fdd415" fill="#fdd415"/>
	</g>
</g><g>
	<g>
		<rect x="72" y="184" width="16" height="16" data-original="#000000" class="active-path" data-old_color="#fdd415" fill="#fdd415"/>
	</g>
</g><g>
	<g>
		<rect x="72" y="152" width="16" height="16" data-original="#000000" class="active-path" data-old_color="#fdd415" fill="#fdd415"/>
	</g>
</g><g>
	<g>
		<rect x="72" y="280" width="16" height="16" data-original="#000000" class="active-path" data-old_color="#fdd415" fill="#fdd415"/>
	</g>
</g><g>
	<g>
		<rect x="184" y="360" width="16" height="16" data-original="#000000" class="active-path" data-old_color="#fdd415" fill="#fdd415"/>
	</g>
</g><g>
	<g>
		<rect x="248" y="360" width="16" height="16" data-original="#000000" class="active-path" data-old_color="#fdd415" fill="#fdd415"/>
	</g>
</g><g>
	<g>
		<rect x="216" y="360" width="16" height="16" data-original="#000000" class="active-path" data-old_color="#fdd415" fill="#fdd415"/>
	</g>
</g><g>
	<g>
		<rect x="352" y="184" width="16" height="16" data-original="#000000" class="active-path" data-old_color="#fdd415" fill="#fdd415"/>
	</g>
</g><g>
	<g>
		<rect x="352" y="152" width="16" height="16" data-original="#000000" class="active-path" data-old_color="#fdd415" fill="#fdd415"/>
	</g>
</g><g>
	<g>
		<rect x="352" y="248" width="16" height="16" data-original="#000000" class="active-path" data-old_color="#fdd415" fill="#fdd415"/>
	</g>
</g><g>
	<g>
		<rect x="352" y="216" width="16" height="16" data-original="#000000" class="active-path" data-old_color="#fdd415" fill="#fdd415"/>
	</g>
</g><g>
	<g>
		<rect x="352" y="280" width="16" height="16" data-original="#000000" class="active-path" data-old_color="#fdd415" fill="#fdd415"/>
	</g>
</g></g> </svg>
