<?xml version="1.0"?>
<svg xmlns="http://www.w3.org/2000/svg" xmlns:xlink="http://www.w3.org/1999/xlink" version="1.1" id="Capa_1" x="0px" y="0px" viewBox="0 0 512 512" style="enable-background:new 0 0 512 512;" xml:space="preserve" width="512px" height="512px"><g><g>
	<g>
		<path d="M173.996,359.34h-29c-5.511,0-10,4.49-10,10c0,5.519,4.489,10,10,10h29c5.52,0,10-4.48,10-10    C183.996,363.83,179.516,359.34,173.996,359.34z" data-original="#000000" class="active-path" data-old_color="#012f5c" fill="#012f5c"/>
	</g>
</g><g>
	<g>
		<path d="M189.999,399.344h-45c-5.522,0-10,4.478-10,10c0,5.522,4.478,10,10,10h45c5.522,0,10-4.478,10-10    C199.999,403.822,195.521,399.344,189.999,399.344z" data-original="#000000" class="active-path" data-old_color="#012f5c" fill="#012f5c"/>
	</g>
</g><g>
	<g>
		<path d="M164.999,170c-5.514,0-10-4.486-10-10c0-5.514,4.486-10,10-10c2.627,0,5.107,1.01,6.984,2.844    c3.951,3.858,10.28,3.783,14.142-0.167c3.858-3.951,3.784-10.282-0.167-14.142c-3.164-3.09-6.898-5.4-10.959-6.833V130    c0-5.522-4.478-10-10-10c-5.522,0-10,4.478-10,10v1.72c-11.639,4.128-20,15.243-20,28.28c0,16.542,13.458,30,30,30    c5.514,0,10,4.486,10,10c0,5.514-4.486,10-10,10c-2.852,0-5.48-1.163-7.4-3.275c-3.718-4.086-10.042-4.386-14.127-0.67    c-4.086,3.716-4.386,10.041-0.67,14.127c3.361,3.695,7.573,6.448,12.197,8.086V230c0,5.522,4.478,10,10,10c5.522,0,10-4.478,10-10    v-1.72c11.639-4.128,20-15.243,20-28.28C194.999,183.458,181.541,170,164.999,170z" data-original="#000000" class="active-path" data-old_color="#012f5c" fill="#012f5c"/>
	</g>
</g><g>
	<g>
		<path d="M253.996,120h-29c-5.511,0-10,4.49-10,10s4.489,10,10,10h29c5.52,0,10-4.49,10-10S259.516,120,253.996,120z" data-original="#000000" class="active-path" data-old_color="#012f5c" fill="#012f5c"/>
	</g>
</g><g>
	<g>
		<path d="M293.996,120c-5.511,0-10,4.49-10,10s4.489,10,10,10c5.52,0,10-4.49,10-10S299.516,120,293.996,120z" data-original="#000000" class="active-path" data-old_color="#012f5c" fill="#012f5c"/>
	</g>
</g><g>
	<g>
		<path d="M237.999,160h-13c-5.522,0-10,4.478-10,10c0,5.522,4.477,10,10,10h13c5.522,0,10-4.478,10-10    C247.999,164.478,243.521,160,237.999,160z" data-original="#000000" class="active-path" data-old_color="#012f5c" fill="#012f5c"/>
	</g>
</g><g>
	<g>
		<path d="M314.999,160h-37c-5.522,0-10,4.478-10,10c0,5.522,4.478,10,10,10h37c5.522,0,10-4.478,10-10    C324.999,164.478,320.521,160,314.999,160z" data-original="#000000" class="active-path" data-old_color="#012f5c" fill="#012f5c"/>
	</g>
</g><g>
	<g>
		<path d="M269.999,200h-45c-5.522,0-10,4.478-10,10c0,5.522,4.477,10,10,10h45c5.522,0,10-4.478,10-10    C279.999,204.478,275.521,200,269.999,200z" data-original="#000000" class="active-path" data-old_color="#012f5c" fill="#012f5c"/>
	</g>
</g><g>
	<g>
		<path d="M314.999,200h-5c-5.522,0-10,4.478-10,10c0,5.522,4.478,10,10,10h5c5.522,0,10-4.478,10-10    C324.999,204.478,320.521,200,314.999,200z" data-original="#000000" class="active-path" data-old_color="#012f5c" fill="#012f5c"/>
	</g>
</g><g>
	<g>
		<path d="M214.999,260h-70c-5.522,0-10,4.478-10,10c0,5.522,4.477,10,10,10h70c5.522,0,10-4.478,10-10    C224.999,264.478,220.521,260,214.999,260z" data-original="#000000" class="active-path" data-old_color="#012f5c" fill="#012f5c"/>
	</g>
</g><g>
	<g>
		<path d="M243.098,300h-98.099c-5.522,0-10,4.478-10,10c0,5.522,4.477,10,10,10h98.099c5.522,0,10-4.478,10-10    C253.098,304.478,248.62,300,243.098,300z" data-original="#000000" class="active-path" data-old_color="#012f5c" fill="#012f5c"/>
	</g>
</g><g>
	<g>
		<path d="M256.097,339.344c-22.056,0-40,17.944-40,40c0,22.056,17.944,40,40,40c22.056,0,40-17.944,40-40    C296.097,357.288,278.153,339.344,256.097,339.344z M256.097,399.344c-11.028,0-20-8.972-20-20s8.972-20,20-20s20,8.972,20,20    S267.126,399.344,256.097,399.344z" data-original="#000000" class="active-path" data-old_color="#012f5c" fill="#012f5c"/>
	</g>
</g><g>
	<g>
		<path d="M496.658,458.001l-12.875-48.052c-0.687-2.563-2.362-4.746-4.659-6.072c-2.297-1.327-5.027-1.687-7.588-0.999    l-27.388,7.339c0.334-12.898,0.376-33.645-1.462-57.483c-2.503-32.528-22.139-139.769-77.688-209.301V50    c0-13.351-5.202-25.905-14.649-35.352C340.902,5.201,328.347,0,314.999,0h-250c-27.57,0-50,22.43-50,50v40c0,5.522,4.478,10,10,10    h70v349.344c0,5.522,4.478,10,10,10h205.67l12.123,45.244c0.687,2.563,2.362,4.746,4.659,6.072c1.533,0.886,3.26,1.34,5,1.34    c0.867,0,1.736-0.112,2.588-0.341l154.548-41.411C494.922,468.818,498.088,463.335,496.658,458.001z M358.915,323.36    c3.688-1.57,6.081-5.191,6.081-9.2V178.035c16.217,25.841,30.104,57.646,40.764,93.608c11.775,39.724,16.254,73.11,16.985,82.625    c2.076,26.918,1.636,50.175,1.209,61.359l-55.395,14.843c-10.671-62.292-41.846-99.347-43.244-100.98    c-0.168-0.197-33.627-33.676-33.627-33.676l14.164-15.024l42.216,40.581C350.959,324.148,355.226,324.933,358.915,323.36z     M34.999,80V50c0-16.542,13.458-30,30-30h210.027c-6.292,8.363-10.027,18.753-10.027,30v30H34.999z M114.999,439.344V100h160    c5.522,0,10-4.478,10-10V60h30c5.522,0,10-4.478,10-10s-4.478-10-10-10h-28.28c4.128-11.639,15.243-20,28.28-20    c8.008,0,15.54,3.122,21.209,8.791s8.791,13.201,8.791,21.209l-0.003,240.679l-48.566-46.687    c-5.657-5.617-13.158-8.71-21.134-8.71c-8.012,0-15.545,3.12-21.211,8.786c-5.666,5.667-8.787,13.199-8.787,21.212    s3.121,15.545,8.786,21.21l56.242,56.252c2.665,3.251,29.749,37.465,38.806,92.934l-13.688,3.668H114.999z M291.432,266.931    l-13.892,14.735l-9.314-9.317c-1.889-1.889-2.929-4.398-2.929-7.068s1.041-5.181,2.93-7.069c1.888-1.889,4.398-2.929,7.068-2.929    s5.181,1.04,7.068,2.929C282.41,258.258,291.432,266.931,291.432,266.931z M339.522,489.753l-7.699-28.733l135.229-36.235    l7.699,28.733L339.522,489.753z" data-original="#000000" class="active-path" data-old_color="#012f5c" fill="#012f5c"/>
	</g>
</g></g> </svg>
